<?xml version="1.0" encoding="UTF-8"?>
<svg version="1.1" xmlns="http://www.w3.org/2000/svg" width="429" height="117">
<path d="M0 0 C141.57 0 283.14 0 429 0 C429 38.61 429 77.22 429 117 C287.43 117 145.86 117 0 117 C0 78.39 0 39.78 0 0 Z " fill="#F5D348" transform="translate(0,0)"/>
<path d="M0 0 C2.50508313 1.37727599 4.21426302 2.5730573 5.5078125 5.16015625 C5.8378125 3.51015625 6.1678125 1.86015625 6.5078125 0.16015625 C12.1178125 0.16015625 17.7278125 0.16015625 23.5078125 0.16015625 C23.58204912 7.59828515 23.63645651 15.03619767 23.67260742 22.47460938 C23.68768036 25.00426999 23.70814211 27.53390454 23.73413086 30.06347656 C23.77057866 33.70253948 23.7875542 37.34125641 23.80078125 40.98046875 C23.81626511 42.10881134 23.83174896 43.23715393 23.84770203 44.39968872 C23.8491224 51.04821377 23.40545938 55.72699488 18.96484375 60.98828125 C18.42214844 61.4575 17.87945312 61.92671875 17.3203125 62.41015625 C16.79050781 62.8896875 16.26070313 63.36921875 15.71484375 63.86328125 C6.78808337 69.10874045 -6.97090059 68.51203669 -16.80859375 66.47265625 C-20.84885573 65.0275551 -23.1123184 63.56782065 -26.0546875 60.41015625 C-27.78331737 56.50194959 -28.19904683 53.41069602 -28.4921875 49.16015625 C-22.07274089 48.91892444 -15.57826615 48.83276012 -9.4921875 51.16015625 C-8.74775391 51.92392578 -8.74775391 51.92392578 -7.98828125 52.703125 C-6.10110555 54.54102718 -5.09187755 54.62076701 -2.4921875 54.66015625 C0.5761424 54.51914844 1.22381878 54.43527517 3.5078125 52.22265625 C4.84297899 48.13370887 4.75849878 44.42182303 4.5078125 40.16015625 C3.4559375 41.08828125 3.4559375 41.08828125 2.3828125 42.03515625 C-2.20772635 45.42816323 -6.65602775 46.69718927 -12.40625 46.54296875 C-17.42423538 45.62206507 -21.18812729 42.39372671 -24.8046875 38.97265625 C-29.3392634 31.41502976 -30.69546576 22.85813911 -29.4921875 14.16015625 C-27.74293781 8.57033169 -24.95019497 3.09809699 -19.84375 -0.0625 C-13.68591658 -2.09806287 -6.14132834 -2.06956989 0 0 Z " fill="#020200" transform="translate(286.4921875,41.83984375)"/>
<path d="M0 0 C6.27 0 12.54 0 19 0 C19 7.59 19 15.18 19 23 C20.98 21.68 22.96 20.36 25 19 C30.87962997 17.04012334 38.754001 16.38226998 44.40625 19.19921875 C47.84743371 22.0936042 50.74014535 25.21426695 51.1739502 29.86480713 C51.23159155 32.21968841 51.22452081 34.56645993 51.1953125 36.921875 C51.1924826 37.78186096 51.18965271 38.64184692 51.18673706 39.52789307 C51.1755615 42.26873821 51.15046179 45.00925398 51.125 47.75 C51.1149668 49.61067236 51.10584155 51.47134985 51.09765625 53.33203125 C51.07733414 57.88824915 51.03818081 62.44375682 51 67 C44.73 67 38.46 67 32 67 C31.95101563 64.71320313 31.90203125 62.42640625 31.8515625 60.0703125 C31.79757709 57.85947025 31.74026015 55.64873783 31.68261719 53.43798828 C31.64429699 51.89965979 31.60944944 50.36124075 31.578125 48.82275391 C31.53253941 46.61327724 31.4745366 44.40442552 31.4140625 42.1953125 C31.40251129 41.50567413 31.39096008 40.81603577 31.37905884 40.10549927 C31.35048978 36.1079846 31.35048978 36.1079846 29 33 C24.96635262 32.54534402 24.96635262 32.54534402 21.34057617 34.07739258 C19.30375374 36.99853202 19.56026092 39.54721477 19.48828125 43.07421875 C19.47033005 43.7580513 19.45237885 44.44188385 19.43388367 45.1464386 C19.37977925 47.32673 19.3458866 49.50680256 19.3125 51.6875 C19.2793268 53.16734817 19.24483713 54.64716745 19.20898438 56.12695312 C19.12157644 59.75133351 19.06151737 63.37471773 19 67 C12.73 67 6.46 67 0 67 C0 44.89 0 22.78 0 0 Z " fill="#050501" transform="translate(317,23)"/>
<path d="M0 0 C17.16 0 34.32 0 52 0 C52 4.95 52 9.9 52 15 C41.77 15 31.54 15 21 15 C21 18.63 21 22.26 21 26 C29.58 26 38.16 26 47 26 C47 30.29 47 34.58 47 39 C38.42 39 29.84 39 21 39 C21 48.24 21 57.48 21 67 C14.07 67 7.14 67 0 67 C0 44.89 0 22.78 0 0 Z " fill="#060501" transform="translate(40,23)"/>
<path d="M0 0 C1.83498047 -0.03867187 1.83498047 -0.03867187 3.70703125 -0.078125 C8.6538687 0.38824351 11.11811005 2.09149422 14.4375 5.6875 C17.6755482 10.42892772 17.32172744 15.14601133 17.28515625 20.734375 C17.2837413 21.54996887 17.28232635 22.36556274 17.28086853 23.20587158 C17.27528303 25.80395212 17.26273321 28.40194563 17.25 31 C17.24498312 32.76432167 17.24042054 34.52864469 17.23632812 36.29296875 C17.22617039 40.61203945 17.20659219 44.93092262 17.1875 49.25 C10.9175 49.25 4.6475 49.25 -1.8125 49.25 C-1.86148438 46.96320313 -1.91046875 44.67640625 -1.9609375 42.3203125 C-2.01492291 40.10947025 -2.07223985 37.89873783 -2.12988281 35.68798828 C-2.16820301 34.14965979 -2.20305056 32.61124075 -2.234375 31.07275391 C-2.27996059 28.86327724 -2.3379634 26.65442552 -2.3984375 24.4453125 C-2.40998871 23.75567413 -2.42153992 23.06603577 -2.43344116 22.35549927 C-2.46201022 18.3579846 -2.46201022 18.3579846 -4.8125 15.25 C-8.98568334 14.77929448 -8.98568334 14.77929448 -12.625 16.5625 C-15.052897 20.01266943 -14.99467601 23.36478437 -15.12890625 27.44921875 C-15.17080078 28.65771484 -15.21269531 29.86621094 -15.25585938 31.11132812 C-15.29517578 32.37396484 -15.33449219 33.63660156 -15.375 34.9375 C-15.41818359 36.21173828 -15.46136719 37.48597656 -15.50585938 38.79882812 C-15.61204789 41.94908727 -15.71278813 45.0995292 -15.8125 48.25 C-21.7525 48.25 -27.6925 48.25 -33.8125 48.25 C-33.8125 32.74 -33.8125 17.23 -33.8125 1.25 C-28.2025 1.25 -22.5925 1.25 -16.8125 1.25 C-16.4825 3.23 -16.1525 5.21 -15.8125 7.25 C-15.33039063 6.82847656 -14.84828125 6.40695313 -14.3515625 5.97265625 C-13.71992188 5.42480469 -13.08828125 4.87695312 -12.4375 4.3125 C-11.49777344 3.49458984 -11.49777344 3.49458984 -10.5390625 2.66015625 C-7.09881789 -0.1496363 -4.38004376 0.0550372 0 0 Z " fill="#020200" transform="translate(156.8125,40.75)"/>
<path d="M0 0 C1.12857422 -0.02900391 2.25714844 -0.05800781 3.41992188 -0.08789062 C9.82907209 -0.13693062 13.85876609 -0.07507051 18.6875 4.3125 C21.43708492 7.28502424 22.84911876 9.39452032 23.6875 13.3125 C20.77118173 13.58853012 17.85760285 13.83408705 14.9375 14.0625 C14.1125 14.14371094 13.2875 14.22492187 12.4375 14.30859375 C6.23003358 14.75913567 6.23003358 14.75913567 3.30078125 12.34765625 C2.76839844 11.67605469 2.23601562 11.00445312 1.6875 10.3125 C-1.78732175 9.95792635 -3.99627419 10.2070914 -7.3125 11.3125 C-7.3125 12.6325 -7.3125 13.9525 -7.3125 15.3125 C-6.68794922 15.40748779 -6.06339844 15.50247559 -5.41992188 15.6003418 C-2.54750407 16.04816045 0.31964823 16.52384904 3.1875 17 C4.16976562 17.14888672 5.15203125 17.29777344 6.1640625 17.45117188 C13.60046979 18.71536111 19.71767626 20.7858343 24.6875 26.6875 C26.4309615 31.26408645 26.20993018 34.86130505 24.5625 39.4375 C21.00786225 44.88794454 16.2085026 48.54706465 9.8125 49.9375 C-0.23788416 51.13139013 -10.43807649 51.36268144 -19.5625 46.625 C-22.97047685 43.75920129 -24.38671449 41.31220837 -26.3125 37.3125 C-26.3125 36.6525 -26.3125 35.9925 -26.3125 35.3125 C-23.23134257 35.02783758 -20.14829677 34.79091166 -17.0625 34.5625 C-16.18980469 34.48128906 -15.31710938 34.40007812 -14.41796875 34.31640625 C-7.83883423 33.86440464 -7.83883423 33.86440464 -5 36.28125 C-4.443125 36.9515625 -3.88625 37.621875 -3.3125 38.3125 C-0.95725339 38.79172359 -0.95725339 38.79172359 1.4375 38.5625 C2.63632813 38.50835937 2.63632813 38.50835937 3.859375 38.453125 C4.46265625 38.40671875 5.0659375 38.3603125 5.6875 38.3125 C6.0175 36.6625 6.3475 35.0125 6.6875 33.3125 C5.12604438 32.87128709 3.56323889 32.43485247 2 32 C1.00226563 31.72027344 0.00453125 31.44054687 -1.0234375 31.15234375 C-3.23917182 30.58656836 -5.47666286 30.10071293 -7.7265625 29.69140625 C-18.61594373 27.6762449 -18.61594373 27.6762449 -22.35546875 22.34375 C-24.06845365 18.70802696 -24.62949939 15.31273043 -24.3125 11.3125 C-22.53622437 6.71508072 -19.16885075 4.20476307 -15.3125 1.3125 C-10.34359156 -0.34380281 -5.20312913 0.04411924 0 0 Z " fill="#040401" transform="translate(203.3125,40.6875)"/>
<path d="M0 0 C0 6.27 0 12.54 0 19 C3.3 19 6.6 19 10 19 C10 23.29 10 27.58 10 32 C6.7 32 3.4 32 0 32 C0.33 38.93 0.66 45.86 1 53 C3.97 53 6.94 53 10 53 C10.495 59.93 10.495 59.93 11 67 C3.37240251 68.35601733 -5.92971626 69.70348196 -13 66 C-17.76352988 61.34232634 -18.88382196 57.9968312 -19.07397461 51.45507812 C-19.0984083 48.51094473 -19.08719262 45.56911949 -19.0625 42.625 C-19.05798828 41.60277344 -19.05347656 40.58054688 -19.04882812 39.52734375 C-19.037103 37.01816806 -19.02069176 34.5091151 -19 32 C-21.31 32 -23.62 32 -26 32 C-26 27.38 -26 22.76 -26 18 C-23.69 18 -21.38 18 -19 18 C-19 15.03 -19 12.06 -19 9 C-1 0 -1 0 0 0 Z " fill="#050401" transform="translate(397,23)"/>
<path d="M0 0 C6.27 0 12.54 0 19 0 C19 16.17 19 32.34 19 49 C12.73 49 6.46 49 0 49 C0 32.83 0 16.66 0 0 Z " fill="#050401" transform="translate(97,41)"/>
<path d="M0 0 C5.94 0 11.88 0 18 0 C18 15.51 18 31.02 18 47 C12.06 47 6.12 47 0 47 C0 31.49 0 15.98 0 0 Z " fill="#000000" transform="translate(234,42)"/>
<path d="M0 0 C3.73599911 0.60995904 5.37288497 1.88723111 8.0625 4.5 C9.79811969 7.97123937 9.52133955 11.70474145 9.0625 15.5 C7.03674883 19.38944224 5.79484666 20.26032291 1.625 21.625 C-1.9375 21.5 -1.9375 21.5 -4.875 19.8125 C-7.88351394 14.98064428 -8.0456575 10.05607242 -6.9375 4.5 C-4.64336736 1.60087457 -3.67800427 0.62604328 0 0 Z " fill="#EECD46" transform="translate(282.9375,53.5)"/>
<path d="M0 0 C6.27 0 12.54 0 19 0 C19 4.29 19 8.58 19 13 C12.73 13 6.46 13 0 13 C0 8.71 0 4.42 0 0 Z " fill="#060501" transform="translate(97,23)"/>
<path d="M0 0 C5.94 0 11.88 0 18 0 C18 4.29 18 8.58 18 13 C12.06 13 6.12 13 0 13 C0 8.71 0 4.42 0 0 Z " fill="#050401" transform="translate(234,23)"/>
</svg>
